PathFileType   4   (X/Y/Z)
DataRate	CameraRate	NumFrames	NumMarkers	Units	OrigDataRate	OrigDataStartFrame	OrigNumFrames
120.0	120.0	7	37	mm	120.0	102	116
Frame#	Time	midhip	hip_r	hip_l	knee_r	knee_l	ankle_r	ankle_l	midasis	asis_r	asis_l	psis_r	psis_l	epicondLat_r	epicondLat_l	epicondMed_r	epicondMed_l	malleolusLat_r	malleolusLat_l	malleolusMedv_r	malleolusMedv_l	neck	subclavicle_r	subclavicle_l	sternalnotch	xyphoidprocess	thighwand_r	thighwand_l	upperleg1_r	upperleg1_l	upperleg2_r	upperleg2_l	shankwand_r	shankwand_l	lowerleg1_r	lowerleg1_l	toe_r	toe_l
 	 	X1	Y1	Z1	X2	Y2	Z2	X3	Y3	Z3	X4	Y4	Z4	X5	Y5	Z5	X6	Y6	Z6	X7	Y7	Z7	X8	Y8	Z8	X9	Y9	Z9	X10	Y10	Z10	X11	Y11	Z11	X12	Y12	Z12	X13	Y13	Z13	X14	Y14	Z14	X15	Y15	Z15	X16	Y16	Z16	X17	Y17	Z17	X18	Y18	Z18	X19	Y19	Z19	X20	Y20	Z20	X21	Y21	Z21	X22	Y22	Z22	X23	Y23	Z23	X24	Y24	Z24	X25	Y25	Z25	X26	Y26	Z26	X27	Y27	Z27	X28	Y28	Z28	X29	Y29	Z29	X30	Y30	Z30	X31	Y31	Z31	X32	Y32	Z32	X33	Y33	Z33	X34	Y34	Z34	X35	Y35	Z35	X36	Y36	Z36	X37	Y37	Z37

	102	0.95000	2258.775	662.689	-182.611	2258.784	671.424	-119.392	2243.765	669.938	-244.312	2419.148	386.015	-132.272	2131.496	379.950	-212.116	2557.601	89.786	-118.329	2036.145	70.900	-199.997	2320.157	730.044	-190.840	2331.304	731.147	-98.120	2309.009	728.941	-283.560	2182.022	776.276	-149.539	2170.782	774.648	-203.730	2421.380	384.992	-81.831	2121.656	378.320	-261.111	2401.621	369.771	-176.199	2136.424	381.474	-166.933	2550.294	87.907	-85.690	2027.315	72.317	-233.318	2561.096	100.754	-144.187	2031.388	77.297	-171.231	2228.511	1119.721	-185.112	2312.798	1078.812	-125.461	2307.652	1078.025	-251.080	2305.338	1066.843	-190.573	2332.503	925.288	-190.050	2381.739	462.049	2.633	2288.301	439.087	-278.420	2376.390	528.303	-66.538	2250.789	512.616	-215.707	2420.932	458.775	-84.610	2207.145	434.085	-202.924	2490.489	174.447	-15.653	2139.511	142.036	-249.253	2482.121	229.956	-75.772	2097.483	213.763	-226.150	2651.122	113.501	-109.692	2123.128	37.443	-212.769
	103	0.95833	2269.830	659.568	-182.560	2269.934	668.167	-119.379	2254.822	667.044	-244.292	2431.807	383.732	-133.077	2137.432	379.536	-212.389	2579.228	91.530	-120.017	2036.905	72.055	-200.176	2331.127	727.143	-190.688	2342.348	727.977	-97.936	2319.906	726.308	-283.441	2192.836	772.975	-148.849	2181.596	771.515	-203.038	2434.359	382.756	-82.651	2127.537	378.140	-261.380	2414.113	367.511	-177.053	2141.990	381.373	-167.145	2572.103	89.395	-87.354	2028.167	73.587	-233.516	2582.733	103.181	-146.012	2032.149	78.458	-171.482	2238.979	1116.638	-184.181	2323.735	1075.447	-124.916	2318.368	1074.730	-250.606	2316.106	1063.537	-189.955	2343.240	921.946	-189.661	2394.902	459.483	2.168	2295.580	436.210	-278.836	2388.675	525.763	-67.005	2259.235	510.182	-216.085	2433.589	456.550	-85.551	2213.712	432.237	-203.150	2509.940	174.114	-16.942	2141.529	141.401	-249.285	2499.665	229.645	-77.221	2100.786	213.859	-226.498	2672.565	117.057	-111.706	2123.305	37.525	-212.695
	104	0.96667	2281.087	656.535	-182.420	2281.254	665.061	-119.259	2266.102	664.202	-244.169	2444.688	381.655	-133.855	2143.831	379.110	-212.599	2599.083	92.764	-121.769	2037.818	73.428	-200.334	2342.287	724.348	-190.447	2353.543	724.985	-97.658	2331.031	723.710	-283.235	2203.808	769.759	-148.258	2192.686	768.445	-202.433	2447.625	380.753	-83.448	2133.864	377.960	-261.582	2427.031	365.607	-177.744	2149.315	380.476	-167.327	2592.146	90.424	-89.078	2029.177	75.086	-233.693	2602.460	105.019	-147.873	2032.995	79.818	-171.677	2249.614	1113.538	-183.273	2334.704	1072.110	-124.329	2329.089	1071.517	-250.029	2326.913	1060.321	-189.292	2353.985	918.659	-189.269	2408.411	457.247	1.728	2303.171	433.413	-279.222	2401.368	523.615	-67.406	2268.114	507.630	-216.293	2446.605	454.734	-86.343	2221.703	430.558	-203.457	2528.263	173.657	-18.284	2143.746	140.827	-249.285	2516.349	229.197	-78.633	2104.398	213.962	-226.701	2692.294	119.663	-113.737	2123.535	37.639	-212.601
	105	0.97500	2292.580	653.642	-182.179	2292.782	662.153	-119.020	2277.617	661.453	-243.930	2457.830	379.836	-134.625	2150.739	378.660	-212.726	2617.136	93.333	-123.529	2038.909	75.041	-200.463	2353.666	721.695	-190.123	2364.935	722.216	-97.295	2342.396	721.174	-282.951	2214.992	766.677	-147.758	2204.103	765.486	-201.908	2461.171	379.005	-84.243	2140.680	377.770	-261.695	2440.650	364.028	-178.270	2157.667	379.288	-167.434	2610.386	90.846	-90.810	2030.368	76.839	-233.840	2620.321	106.084	-149.873	2033.933	81.377	-171.803	2260.394	1110.477	-182.408	2345.618	1068.872	-123.544	2339.835	1068.354	-249.249	2337.767	1057.243	-188.584	2364.642	915.435	-188.600	2422.183	455.299	1.288	2311.111	430.715	-279.575	2414.378	521.833	-67.794	2277.465	505.071	-216.346	2460.026	453.302	-86.965	2230.593	429.008	-203.742	2545.424	173.002	-19.650	2146.185	140.327	-249.247	2532.204	228.512	-79.976	2108.082	214.027	-226.598	2710.280	121.155	-115.749	2123.827	37.787	-212.486
	106	0.98333	2304.335	650.936	-181.839	2304.555	659.482	-118.666	2289.384	658.832	-243.575	2471.254	378.302	-135.405	2158.195	378.187	-212.754	2633.388	93.127	-125.251	2040.206	76.915	-200.555	2365.296	719.214	-189.732	2376.576	719.697	-96.863	2354.015	718.730	-282.601	2226.434	763.778	-147.334	2215.881	762.682	-201.452	2474.973	377.509	-85.048	2148.020	377.568	-261.704	2454.611	363.060	-179.003	2169.609	376.214	-167.595	2626.817	90.558	-92.502	2031.768	78.868	-233.950	2636.331	106.101	-151.870	2035.105	83.174	-171.901	2271.229	1107.556	-181.508	2356.565	1065.841	-122.667	2350.684	1065.389	-248.501	2348.669	1054.340	-187.815	2375.470	912.429	-187.881	2436.134	453.580	0.825	2319.432	428.132	-279.895	2427.801	520.462	-68.065	2287.215	502.593	-216.302	2473.785	452.217	-87.552	2242.266	427.899	-204.325	2561.419	172.088	-21.017	2148.870	139.915	-249.173	2547.354	227.592	-81.358	2112.125	214.185	-226.452	2726.525	121.409	-117.719	2124.191	37.970	-212.350
	107	0.99167	2316.378	648.453	-181.413	2316.612	657.067	-118.214	2301.412	656.372	-243.120	2484.953	377.047	-136.206	2166.229	377.699	-212.671	2647.874	92.099	-126.900	2041.745	79.065	-200.604	2377.205	716.924	-189.300	2388.511	717.441	-96.393	2365.899	716.407	-282.208	2238.180	761.102	-146.963	2228.041	760.067	-201.047	2488.992	376.242	-85.874	2155.907	377.361	-261.593	2469.204	362.755	-180.021	2175.508	376.960	-167.153	2641.473	89.509	-94.119	2033.405	81.192	-234.014	2650.467	105.048	-153.659	2036.483	85.319	-171.919	2282.139	1104.831	-180.602	2367.530	1063.033	-121.782	2361.640	1062.748	-247.799	2359.619	1051.645	-186.975	2386.464	909.712	-187.293	2450.190	452.025	0.317	2328.165	425.676	-280.192	2441.492	519.412	-68.283	2297.272	500.309	-216.229	2487.860	451.580	-88.123	2249.259	425.711	-203.882	2576.264	170.878	-22.363	2151.822	139.608	-249.073	2561.816	226.524	-82.662	2116.619	214.538	-226.383	2741.075	120.346	-119.626	2124.638	38.186	-212.190
	108	1.00000	2328.731	646.211	-180.921	2328.976	654.913	-117.698	2313.710	654.100	-242.595	2498.891	376.036	-137.032	2174.859	377.214	-212.470	2660.674	90.264	-128.450	2043.568	81.501	-200.604	2389.418	714.834	-188.860	2400.777	715.440	-95.923	2378.058	714.229	-281.796	2250.263	758.682	-146.619	2240.587	757.668	-200.674	2503.172	375.156	-86.722	2164.358	377.162	-261.355	2484.806	362.970	-181.184	2185.119	376.102	-167.019	2654.433	87.716	-95.635	2035.316	83.824	-234.022	2662.832	102.956	-155.170	2038.078	87.845	-171.827	2293.116	1102.321	-179.630	2378.533	1060.509	-120.827	2372.608	1060.369	-246.964	2370.629	1049.189	-186.073	2397.533	907.276	-186.584	2464.289	450.570	-0.250	2337.330	423.359	-280.482	2455.145	518.555	-68.508	2307.564	498.286	-216.094	2502.231	451.395	-88.627	2259.321	424.633	-203.926	2590.003	169.358	-23.675	2155.063	139.427	-248.962	2575.568	225.292	-83.877	2121.578	215.121	-226.224	2754.017	117.946	-121.453	2125.179	38.431	-212.002
